<svg width="250" height="200" viewBox="0 0 250 200" fill="none" xmlns="http://www.w3.org/2000/svg">
<rect width="250" height="200" rx="6" fill="#FAFAFA"/>
<path d="M28.2426 128.456C25.8995 126.113 25.8995 122.314 28.2426 119.971L40.9706 107.243C43.3137 104.899 47.1127 104.899 49.4558 107.243L105.317 163.104L88.3467 180.075C86.0036 182.418 82.2046 182.418 79.8614 180.075L28.2426 128.456Z" fill="#C2C2C2"/>
<rect x="205.421" y="21" width="30" height="200" rx="6" transform="rotate(45 205.421 21)" fill="#C2C2C2"/>
<path d="M27.2426 123.456C24.8995 121.113 24.8995 117.314 27.2426 114.971L39.9706 102.243C42.3137 99.8995 46.1127 99.8995 48.4558 102.243L104.317 158.104L87.3467 175.075C85.0036 177.418 81.2046 177.418 78.8614 175.075L27.2426 123.456Z" fill="#1ABC9C"/>
<rect x="204.421" y="16" width="30" height="200" rx="6" transform="rotate(45 204.421 16)" fill="#1ABC9C"/>
</svg>
